<?xml version="1.0" standalone="no"?>
<!DOCTYPE svg PUBLIC "-//W3C//DTD SVG 20010904//EN"
 "http://www.w3.org/TR/2001/REC-SVG-20010904/DTD/svg10.dtd">
<svg version="1.0" xmlns="http://www.w3.org/2000/svg"
 width="164.000000pt" height="188.000000pt" viewBox="0 0 164.000000 188.000000"
 preserveAspectRatio="xMidYMid meet">
<metadata>
Created by potrace 1.10, written by Peter Selinger 2001-2011
</metadata>
<g transform="translate(0.000000,188.000000) scale(0.050000,-0.050000)"
fill="#000000" stroke="none">
<path d="M820 3681 c-223 -9 -305 -19 -354 -46 -35 -19 -112 -42 -170 -50
-121 -18 -142 -58 -88 -167 34 -67 24 -163 -20 -200 -37 -30 -35 -88 4 -149
45 -68 25 -101 -70 -116 -92 -15 -93 -16 -53 -90 15 -29 33 -76 39 -105 7 -30
42 -73 82 -100 88 -60 109 -133 111 -385 0 -31 17 -80 38 -110 41 -58 114
-569 93 -653 -16 -64 29 -97 81 -60 58 40 118 203 88 239 -13 15 -27 73 -31
128 -4 55 -22 128 -40 163 -53 103 -35 150 60 151 87 1 130 19 130 54 0 12 18
42 40 65 l40 43 -42 44 c-44 48 -86 48 -90 1 -5 -70 -11 -78 -55 -78 -73 0
-288 215 -249 249 59 52 181 89 207 63 26 -26 24 -31 -11 -42 -32 -10 -36 -20
-19 -51 23 -43 79 -53 79 -15 0 14 22 43 48 65 39 33 45 50 31 86 -20 50 -95
61 -135 21 -19 -19 -24 -14 -24 21 0 109 -131 196 -200 133 -44 -40 -77 -5
-84 90 -12 134 191 110 315 -37 71 -85 109 -82 109 9 0 84 82 86 140 4 17 -23
61 -70 99 -104 222 -198 263 -256 251 -352 -9 -71 -26 -277 -29 -365 -2 -33
-101 -13 -121 25 -23 44 -99 53 -134 18 -17 -17 -10 -37 26 -75 58 -63 55
-103 -11 -136 -66 -33 -81 -19 -81 74 0 70 -5 79 -48 79 -126 0 -171 -129 -53
-153 33 -6 58 -17 56 -24 -46 -170 115 -189 225 -28 61 89 89 82 118 -30 51
-196 46 -322 -14 -355 -100 -54 -107 -62 -93 -116 8 -33 23 -48 41 -40 20 7
25 1 16 -23 -7 -18 -17 -28 -23 -23 -5 6 -23 -3 -39 -19 -39 -40 -66 -36 -134
20 l-58 47 44 62 c51 70 41 102 -29 102 -53 0 -68 53 -26 95 30 30 6 87 -31
73 -16 -6 -52 -47 -82 -91 -29 -44 -83 -98 -121 -120 -77 -46 -118 -150 -89
-227 25 -67 64 -84 89 -40 75 133 218 179 243 80 8 -33 31 -55 65 -63 29 -7
62 -18 73 -25 21 -13 232 -17 219 -4 -13 13 52 122 73 122 12 0 68 -48 125
-107 72 -75 129 -115 189 -131 47 -14 106 -47 130 -75 24 -28 85 -74 134 -102
50 -29 108 -67 130 -86 22 -19 72 -41 110 -50 39 -8 101 -40 140 -72 87 -71
100 -71 100 1 0 73 -111 167 -235 201 -61 16 -93 39 -115 81 -28 54 -110 120
-110 88 0 -7 -13 -2 -30 12 -44 37 -37 74 18 88 35 9 53 32 66 87 37 156 161
78 142 -90 -7 -58 -1 -67 58 -86 48 -16 66 -34 66 -67 0 -106 80 -119 138 -21
60 103 58 108 -119 260 -149 129 -230 231 -204 258 34 34 109 1 202 -88 58
-55 144 -127 192 -161 49 -33 94 -78 101 -100 7 -22 31 -50 53 -61 80 -44 41
-124 -73 -148 -115 -24 -146 -78 -58 -100 40 -10 72 -1 124 37 89 63 144 43
144 -55 0 -95 -41 -138 -142 -151 -72 -10 -89 -20 -94 -57 -8 -51 -11 -52 -96
-27 -49 14 -66 10 -83 -18 -18 -29 -37 -32 -104 -20 -74 13 -109 34 -197 115
-32 30 -84 33 -84 5 0 -11 18 -31 40 -45 22 -13 40 -36 40 -50 0 -14 25 -37
55 -50 30 -13 60 -30 65 -36 25 -30 109 -34 150 -7 41 27 47 25 76 -19 17 -26
59 -53 93 -60 43 -8 61 -23 61 -51 0 -56 -33 -70 -102 -41 -45 19 -72 19 -110
2 -107 -49 -316 -76 -468 -61 -267 27 -370 43 -392 60 -12 10 -70 27 -129 38
-67 13 -127 40 -159 70 -29 28 -58 50 -65 50 -50 0 -113 43 -103 69 7 17 22
25 33 18 13 -8 15 -3 5 13 -13 20 -22 18 -42 -10 -15 -20 -22 -43 -17 -52 16
-26 -84 -44 -146 -27 -30 8 -76 17 -101 21 -58 7 -104 43 -104 81 0 36 50 56
95 36 75 -32 111 -27 162 22 91 88 276 225 315 232 38 8 61 117 25 117 -9 0
-17 10 -17 21 0 12 16 20 35 18 86 -9 98 21 39 96 -25 33 -74 -5 -74 -57 0
-21 -10 -38 -21 -38 -12 0 -16 -8 -10 -18 6 -10 -23 -39 -64 -64 -41 -24 -99
-69 -129 -98 -29 -29 -104 -70 -165 -91 l-111 -37 -89 99 c-114 127 -124 209
-26 209 79 -1 108 -18 118 -70 13 -68 191 -69 209 -1 42 169 -68 237 -275 171
-76 -24 -171 -40 -212 -37 -112 10 -97 -162 22 -261 22 -18 30 -63 30 -160 -3
-240 35 -271 463 -383 94 -24 211 -61 262 -81 242 -96 1187 -84 1302 17 23 20
56 26 94 18 141 -28 185 103 53 158 -69 29 -111 80 -111 135 0 28 136 19 222
-15 17 -7 41 -1 52 13 88 111 49 753 -47 790 -31 12 -37 118 -7 136 11 7 20
46 20 86 0 41 19 133 42 204 80 250 79 233 25 291 -62 67 -54 114 23 130 154
31 275 192 233 308 -34 94 -28 160 17 201 40 36 100 202 100 275 0 20 -24 58
-54 84 -61 52 -36 123 38 104 21 -5 36 1 36 16 0 46 -63 80 -168 91 -117 11
-140 54 -75 137 l37 48 85 -62 c156 -113 179 39 32 206 -95 108 -82 106 -227
23 -38 -22 -65 -22 -160 1 -201 49 -310 65 -493 71 l-178 6 -2 -280 c-3 -376
-28 -579 -84 -700 -26 -55 -47 -123 -47 -152 0 -28 -19 -69 -42 -90 -78 -70
-82 -100 -28 -180 70 -103 82 -162 42 -205 -46 -52 -42 -215 8 -308 57 -106
52 -167 -15 -199 -43 -21 -59 -48 -77 -131 -70 -312 -285 -333 -387 -38 -22
63 -58 139 -82 169 -33 42 -40 71 -31 134 7 53 -2 117 -27 190 l-38 110 47 50
c121 127 122 399 1 542 -64 77 -68 302 -5 348 41 30 43 58 6 116 -51 81 -74
297 -53 487 27 234 46 224 -379 208z m251 -125 c26 -17 12 -156 -15 -156 -11
0 -47 23 -80 50 -61 52 -106 63 -125 32 -19 -31 8 -73 72 -110 94 -56 163
-228 146 -363 -8 -68 -5 -109 9 -118 33 -20 26 -111 -10 -125 -36 -13 -169
126 -209 219 -22 50 -33 55 -129 55 -104 0 -107 2 -150 84 l-43 83 46 36 c67
51 78 48 177 -53 82 -83 160 -117 160 -70 0 48 -101 177 -144 184 -31 4 -48
24 -57 66 -7 34 -28 85 -47 114 -32 49 -32 54 -1 71 38 22 368 22 400 1z
m-520 -97 c7 -11 1 -34 -12 -50 -14 -17 -26 -63 -27 -102 -2 -66 -8 -73 -64
-79 l-62 -7 15 84 c8 47 11 92 5 101 -5 9 -5 29 2 45 12 33 123 40 143 8z
m1757 9 c18 -7 32 -25 32 -41 0 -23 8 -24 42 -6 24 13 71 18 105 12 35 -7 99
-18 143 -25 80 -12 170 -75 170 -118 0 -114 -164 -113 -212 2 -28 67 -73 88
-99 47 -7 -12 5 -42 27 -65 21 -24 46 -65 53 -90 8 -25 45 -74 82 -107 54 -50
65 -72 56 -117 -13 -63 48 -120 130 -120 56 0 48 72 -17 155 -31 39 -34 55
-15 85 23 38 55 36 55 -3 0 -12 23 -49 52 -83 41 -49 49 -74 38 -123 -12 -55
-16 -81 -27 -193 -2 -17 -25 -42 -53 -54 -62 -29 -66 -98 -10 -169 72 -92 36
-221 -38 -131 -11 14 -43 53 -69 85 -44 54 -53 57 -101 35 -87 -39 -88 -83 -5
-149 90 -72 91 -95 8 -181 -36 -37 -75 -84 -87 -105 -29 -50 -338 263 -357
361 -7 39 -32 72 -73 95 -61 35 -70 126 -17 183 9 9 7 40 -3 68 -19 50 -1 91
43 97 10 1 28 3 39 5 31 3 24 41 -20 97 -50 62 -56 215 -10 232 52 20 187
-119 217 -224 33 -112 74 -126 132 -44 l43 61 -94 135 c-115 164 -135 182
-195 170 -73 -13 -119 46 -103 133 20 106 48 125 138 90z m-1873 -367 c-7 -40
-69 -51 -106 -20 -42 34 -36 70 16 94 50 24 101 -18 90 -74z m1623 -835 c91
-59 96 -69 51 -115 -60 -59 -136 -30 -191 72 -53 100 19 123 140 43z m231
-209 c100 -46 76 -157 -34 -157 -21 0 -32 -9 -25 -20 7 -11 42 -20 79 -20 175
0 293 -116 258 -254 -15 -60 -58 -58 -99 4 -18 28 -44 50 -59 50 -14 0 -71 36
-126 79 -113 90 -229 114 -271 57 -21 -29 -28 -21 -48 56 -35 130 -34 133 55
118 73 -12 81 -9 110 48 34 67 77 77 160 39z m-195 -362 c76 -33 252 -155 272
-188 9 -15 27 -27 40 -28 74 -2 176 -239 103 -239 -84 0 -489 354 -489 427 0
61 0 61 74 28z m-871 -344 c33 -72 12 -106 -61 -96 -68 10 -71 18 -42 94 24
64 74 66 103 2z"/>
<path d="M2524 2776 c-75 -75 24 -254 124 -224 95 28 101 58 33 156 -63 92
-112 113 -157 68z"/>
<path d="M2215 2713 c-49 -38 -45 -48 33 -81 55 -23 66 -37 58 -75 -13 -71
141 -225 195 -196 50 26 52 17 -39 154 -43 64 -81 139 -85 166 -8 58 -104 77
-162 32z"/>
<path d="M720 2722 c1 -27 33 -57 75 -71 67 -21 80 -103 25 -161 -52 -56 -42
-104 24 -113 27 -4 49 -23 53 -47 12 -63 43 -90 106 -90 61 0 92 40 64 84 -9
14 -18 50 -19 80 -2 32 -30 81 -71 120 -37 36 -88 94 -113 129 -40 54 -145
105 -144 69z"/>
<path d="M916 1607 c-26 -26 -28 -42 -11 -80 27 -58 62 -60 118 -4 l43 43 -45
37 c-56 45 -64 46 -105 4z"/>
<path d="M1335 962 c-96 -45 -56 -94 91 -115 105 -14 125 20 63 109 -37 52
-54 52 -154 6z"/>
<path d="M1675 705 c-19 -4 -35 -15 -35 -25 0 -9 -22 -14 -50 -11 -27 3 -50 0
-50 -7 0 -6 -59 -10 -130 -6 -136 5 -187 -27 -132 -82 27 -27 282 -40 282 -15
0 10 18 13 40 7 23 -6 40 -1 40 13 0 13 9 18 21 10 11 -7 33 -2 48 10 15 12
39 20 54 17 42 -9 32 46 -13 73 -22 14 -56 21 -75 16z"/>
<path d="M1686 424 c-100 -62 91 -149 279 -128 65 8 120 84 61 84 -29 1 -30 4
-8 18 21 14 16 18 -20 19 -26 1 -102 6 -169 11 -67 5 -131 3 -143 -4z"/>
</g>
</svg>
