<?xml version="1.0" standalone="no"?>
<!DOCTYPE svg PUBLIC "-//W3C//DTD SVG 20010904//EN"
 "http://www.w3.org/TR/2001/REC-SVG-20010904/DTD/svg10.dtd">
<svg version="1.0" xmlns="http://www.w3.org/2000/svg"
 width="264.000000pt" height="444.000000pt" viewBox="0 0 264.000000 444.000000"
 preserveAspectRatio="xMidYMid meet">
<metadata>
Created by potrace 1.10, written by Peter Selinger 2001-2011
</metadata>
<g transform="translate(0.000000,444.000000) scale(0.100000,-0.100000)"
fill="#000000" stroke="none">
<path d="M445 4374 c-94 -49 -123 -112 -175 -382 -33 -176 -40 -236 -41 -340
0 -70 -4 -161 -8 -202 -12 -110 13 -477 49 -710 11 -74 27 -198 35 -275 8 -77
32 -246 54 -375 95 -551 93 -524 100 -1350 4 -404 8 -736 9 -737 1 -2 107 -3
236 -3 l234 0 4 37 c2 20 -6 113 -20 207 -27 195 -25 294 9 441 11 50 22 140
25 200 2 61 11 162 19 225 8 63 19 219 24 345 12 269 26 379 86 690 24 127 47
259 51 295 4 36 15 88 26 115 12 32 21 85 25 145 5 113 14 140 56 171 37 27
140 39 176 20 48 -26 52 -48 51 -236 -1 -235 15 -423 50 -575 23 -102 30 -168
40 -355 6 -126 15 -312 20 -413 5 -101 12 -187 14 -191 3 -4 14 -77 26 -162
12 -84 28 -179 37 -209 18 -65 30 -473 16 -585 -5 -38 -7 -91 -5 -117 l4 -48
223 0 223 0 8 53 c4 28 8 248 9 487 0 239 6 548 13 685 15 287 75 874 97 955
34 126 59 258 95 510 6 41 20 122 31 180 50 259 53 841 5 1026 -8 32 -27 122
-41 199 -27 145 -45 187 -104 243 -51 48 -81 54 -163 33 -151 -38 -1339 -35
-1493 4 -76 19 -93 19 -130 -1z"/>
</g>
</svg>
